<svg class="w-3 h-3" aria-hidden="true" xmlns="http://www.w3.org/2000/svg" fill="white" viewBox="0 0 189 219">
  <path id="Selection" stroke="currentColor" stroke-linecap="round" stroke-linejoin="round" stroke-width="2"
    d="M 92.00,0.65 C 99.81,-0.51 110.21,7.69 117.00,11.58 117.00,11.58 169.00,41.58 169.00,41.58 174.02,44.45 185.18,49.72 187.26,55.02 188.13,57.23 188.00,60.60 188.00,63.00 188.00,63.00 188.00,117.00 188.00,117.00 188.00,119.89 188.21,123.35 186.83,125.96 184.53,130.29 173.57,135.54 169.00,138.15 169.00,138.15 134.00,158.40 134.00,158.40 134.00,158.40 119.04,167.39 119.04,167.39 114.02,171.59 113.06,176.24 110.80,182.00 110.80,182.00 100.95,207.00 100.95,207.00 100.02,209.50 97.31,219.47 93.42,217.60 91.16,216.51 87.85,206.67 86.81,204.00 86.81,204.00 77.80,181.00 77.80,181.00 75.96,176.41 74.58,171.71 70.89,168.21 67.94,165.40 56.24,159.13 52.00,156.72 52.00,156.72 19.00,137.60 19.00,137.60 6.68,130.30 1.02,130.74 1.00,117.00 1.00,117.00 1.00,62.00 1.00,62.00 1.00,59.95 0.89,56.90 1.60,55.01 3.62,49.65 15.85,43.96 21.00,41.00 21.00,41.00 68.00,13.85 68.00,13.85 68.00,13.85 92.00,0.65 92.00,0.65 Z M 135.00,89.00 C 135.00,89.00 108.00,73.72 108.00,73.72 103.42,71.11 98.54,67.54 93.00,68.23 88.90,68.73 83.65,72.20 80.00,74.28 80.00,74.28 54.00,89.00 54.00,89.00 58.98,94.70 74.72,102.29 82.00,106.60 86.36,109.19 90.64,112.45 96.00,111.77 100.15,111.25 105.31,107.56 109.00,105.42 115.82,101.47 130.26,94.39 135.00,89.00 Z" />
</svg>